<?xml version="1.0" standalone="no"?><!DOCTYPE svg PUBLIC "-//W3C//DTD SVG 1.1//EN" "http://www.w3.org/Graphics/SVG/1.1/DTD/svg11.dtd"><svg t="1600324734257" class="icon" viewBox="0 0 1024 1024" version="1.1" xmlns="http://www.w3.org/2000/svg" p-id="2449" xmlns:xlink="http://www.w3.org/1999/xlink" width="200" height="200"><defs><style type="text/css"></style></defs><path d="M778.02409625 457.74870875H738.36832999v-110.15490469a67.74526687 67.74526687 0 0 0-61.68674624-72.70223812H275.16695376a67.74526687 67.74526687 0 0 0-61.6867472 70.49913937v110.15490563h-39.65576625v-110.15490563a110.15490562 110.15490562 0 0 1 101.34251343-112.90877718h401.51463001a110.15490562 110.15490562 0 0 1 101.3425125 112.90877718z" fill="#FF9C15" p-id="2450"></path><path d="M664.56454345 794.82271905m48.46815843 0l-0.55077376 0q48.46815844 0 48.4681575 48.46815845l0 99.69018938q0 48.46815844-48.4681575 48.46815843l0.55077376 0q-48.46815844 0-48.46815845-48.46815843l0-99.69018938q0-48.46815844 48.46815845-48.46815845Z" fill="#FF9C15" p-id="2451"></path><path d="M713.03270186 992a49.01893312 49.01893312 0 0 1-49.01893217-49.01893312v-99.69018938a49.01893312 49.01893312 0 0 1 98.03786531 0v99.69018938a49.01893312 49.01893312 0 0 1-49.01893314 49.01893312z m0-196.62650625a47.91738375 47.91738375 0 0 0-47.91738374 47.91738375v99.69018938a47.91738375 47.91738375 0 1 0 95.8347675-1e-8v-99.69018937a47.91738375 47.91738375 0 0 0-47.91738376-47.91738375z" fill="#FF9C15" p-id="2452"></path><path d="M188.14457844 794.82271905m48.46815843 0l-0.55077468 0q48.46815844 0 48.46815844 48.46815845l0 99.69018938q0 48.46815844-48.46815844 48.46815843l0.55077468 0q-48.46815844 0-48.46815843-48.46815843l0-99.69018938q0-48.46815844 48.46815843-48.46815845Z" fill="#FF9C15" p-id="2453"></path><path d="M236.61273687 992a49.01893312 49.01893312 0 0 1-49.01893312-49.01893312v-99.69018938a49.01893312 49.01893312 0 1 1 97.48709156 0v99.69018938a48.46815844 48.46815844 0 0 1-48.46815844 49.01893312z m0-196.62650625a47.91738375 47.91738375 0 0 0-47.91738374 47.91738375v99.69018938a47.91738375 47.91738375 0 0 0 95.8347675-1e-8v-99.69018937a47.91738375 47.91738375 0 0 0-47.91738376-47.91738375z" fill="#FF9C15" p-id="2454"></path><path d="M77.43889813 441.7762475m124.47504375 0l548.02065375 0q124.47504281 0 124.47504281 124.47504375l0 165.2323575q0 124.47504281-124.47504281 124.4750428l-548.02065375 0q-124.47504281 0-124.47504375-124.4750428l0-165.2323575q0-124.47504281 124.47504375-124.47504375Z" fill="#FBCB3B" p-id="2455"></path><path d="M249.83132562 567.35283969m-55.07745282 0a55.07745281 55.07745281 0 1 0 110.15490564 0 55.07745281 55.07745281 0 1 0-110.15490564 0Z" fill="#FFFFFF" p-id="2456"></path><path d="M249.83132562 623.53184187a55.07745281 55.07745281 0 1 1 1e-8-110.15490562 55.07745281 55.07745281 0 0 1 0 110.15490562z m1e-8-110.15490562a55.07745281 55.07745281 0 1 0 55.07745281 55.07745281 55.07745281 55.07745281 0 0 0-55.07745281-55.6282275z" fill="#FF9C15" p-id="2457"></path><path d="M704.77108438 565.70051655m-55.07745282 0a55.07745281 55.07745281 0 1 0 110.15490563 0 55.07745281 55.07745281 0 1 0-110.15490563 0Z" fill="#FFFFFF" p-id="2458"></path><path d="M704.77108438 621.32874313a55.07745281 55.07745281 0 1 1 55.07745281-55.07745188 55.07745281 55.07745281 0 0 1-55.07745283 55.07745188z m-2e-8-110.15490469a55.07745281 55.07745281 0 1 0 55.07745283 55.07745281 55.07745281 55.07745281 0 0 0-55.07745283-55.6282275z" fill="#FF9C15" p-id="2459"></path><path d="M320.88123969 632.89500875m12.66781406 0l285.30120469 0q12.66781406 0 12.66781406 12.66781406l0 5.507745q0 12.66781406-12.66781406 12.66781406l-285.30120469 1e-8q-12.66781406 0-12.66781406-12.66781407l0-5.507745q0-12.66781406 12.66781406-12.66781406Z" fill="#FFFFFF" p-id="2460"></path><path d="M618.29948375 664.28915657H333.54905375a13.76936343 13.76936343 0 0 1-13.21858876-13.76936344v-4.95697032a13.21858875 13.21858875 0 0 1 13.21858876-13.21858875h284.75043a13.21858875 13.21858875 0 0 1 13.21858875 13.21858875v4.95697032a13.76936343 13.76936343 0 0 1-13.21858875 13.76936344z m-284.75043-30.84337312a12.66781406 12.66781406 0 0 0-12.66781406 12.11703936v4.95697032a12.66781406 12.66781406 0 0 0 12.66781406 12.66781407h284.75043a12.66781406 12.66781406 0 0 0 12.66781406-12.66781407v-4.95697032a12.66781406 12.66781406 0 0 0-12.66781406-12.11703936z" fill="#FF9C15" p-id="2461"></path><path d="M320.88123969 696.23407906m12.66781406 0l285.30120469 0q12.66781406 0 12.66781406 12.66781406l0 5.507745q0 12.66781406-12.66781406 12.667815l-285.30120469 0q-12.66781406 0-12.66781406-12.667815l0-5.507745q0-12.66781406 12.66781406-12.66781406Z" fill="#FFFFFF" p-id="2462"></path><path d="M618.29948375 727.62822687H333.54905375a13.21858875 13.21858875 0 0 1-13.21858876-13.21858874v-4.95697032a13.21858875 13.21858875 0 0 1 13.21858876-13.21858875h284.75043a13.21858875 13.21858875 0 0 1 13.21858875 13.21858875v4.95697032a13.21858875 13.21858875 0 0 1-13.21858875 13.21858875z m-284.75043-30.84337312a12.66781406 12.66781406 0 0 0-12.66781406 12.66781406v4.95697032a12.66781406 12.66781406 0 0 0 12.66781406 12.667815h284.75043a12.66781406 12.66781406 0 0 0 12.66781406-12.667815v-4.95697032a12.66781406 12.66781406 0 0 0-12.66781406-12.66781406z" fill="#FF9C15" p-id="2463"></path><path d="M320.88123969 760.12392406m12.66781406 0l285.30120469 0q12.66781406 0 12.66781406 12.66781407l0 5.50774593q0 12.66781406-12.66781406 12.66781408l-285.30120469 0q-12.66781406 0-12.66781406-12.66781408l0-5.50774593q0-12.66781406 12.66781406-12.66781407Z" fill="#FFFFFF" p-id="2464"></path><path d="M618.29948375 791.51807187H333.54905375a13.21858875 13.21858875 0 0 1-13.21858876-13.21858781v-4.95697125a13.76936343 13.76936343 0 0 1 13.21858876-13.76936344h284.75043a13.76936343 13.76936343 0 0 1 13.21858875 13.76936344v4.95697125a13.21858875 13.21858875 0 0 1-13.21858875 13.21858781z m-284.75043-30.84337312a12.66781406 12.66781406 0 0 0-12.66781406 12.66781406v4.95697125a12.66781406 12.66781406 0 0 0 12.66781406 12.11703939h284.75043a12.66781406 12.66781406 0 0 0 12.66781406-12.11703939v-4.95697125a12.66781406 12.66781406 0 0 0-12.66781406-12.66781406z" fill="#FF9C15" p-id="2465"></path><path d="M801.15662656 32h66.09294282c45.16351125 0 79.31153156 15.42168656 79.3115325 63.33907031s-34.698795 67.19449219-78.20998313 67.19449219h-26.98795219v71.60068875h-40.20654z m64.44061969 98.58863999c28.08950062 0 41.30808938-12.11703937 41.30808938-35.24956968s-14.32013812-31.3941478-42.40963874-31.39414781h-23.13253033v66.64371751z" fill="#FBCB3B" p-id="2466"></path></svg>